PathFileType	4	(X/Y/Z)	C:/Users/opensim2020/Desktop/walking_exp_matlab/subject01_walking07_straight_03.trc																																																																																																																															
DataRate	CameraRate	NumFrames	NumMarkers	Units	OrigDataRate	OrigDataStartFrame	OrigNumFrames																																																																																																																											
100	100	6	43	mm	100	2228	220																																																																																																																											
Frame#	Time	LFHD			RFHD			LBHD			RBHD			C7			T10			CLAV			STRN			RBAK			LSHO			LUPA			LELB			LFRM			LWRA			LWRB			LFIN			RSHO			RUPA			RELB			RFRM			RWRA			RWRB			RFIN			LASI			RASI			LPSI			RPSI			LTHI			LKNE			LTIB			LANK			LHEE			LTOE			RTHI			RKNE			RTIB			RANK			RHEE			RTOE			*39			*40			*41			*42		
		X1	Y1	Z1	X2	Y2	Z2	X3	Y3	Z3	X4	Y4	Z4	X5	Y5	Z5	X6	Y6	Z6	X7	Y7	Z7	X8	Y8	Z8	X9	Y9	Z9	X10	Y10	Z10	X11	Y11	Z11	X12	Y12	Z12	X13	Y13	Z13	X14	Y14	Z14	X15	Y15	Z15	X16	Y16	Z16	X17	Y17	Z17	X18	Y18	Z18	X19	Y19	Z19	X20	Y20	Z20	X21	Y21	Z21	X22	Y22	Z22	X23	Y23	Z23	X24	Y24	Z24	X25	Y25	Z25	X26	Y26	Z26	X27	Y27	Z27	X28	Y28	Z28	X29	Y29	Z29	X30	Y30	Z30	X31	Y31	Z31	X32	Y32	Z32	X33	Y33	Z33	X34	Y34	Z34	X35	Y35	Z35	X36	Y36	Z36	X37	Y37	Z37	X38	Y38	Z38	X39	Y39	Z39	X40	Y40	Z40	X41	Y41	Z41	X42	Y42	Z42	X43	Y43	Z43
																																																																																																																																		
193	1.92	804.82446	1670.46033	1385.47278	852.93738	1672.4325	1488.74475	694.67023	1628.98669	1429.34924	742.74097	1630.37927	1539.63135	662.19806	1430.40735	1452.2915	631.8974	1136.41516	1449.31592	806.80469	1365.46448	1441.18079	853.13275	1212.61304	1428.97632	614.96484	1232.48962	1524.71985	738.7738	1398.40881	1285.72742	718.52112	1218.396	1192.81165	717.5943	1065.84058	1180.92139	779.00507	970.1651	1147.67163	885.24847	878.93909	1156.85132	832.62952	861.30341	1132.99548	897.95288	809.63525	1117.10156	752.83893	1387.56799	1597.87622	694.10577	1184.16565	1692.2124	693.38202	1060.80908	1692.06323	711.89063	942.76343	1722.69287	782.0921	819.07935	1705.62549	738.58429	824.88263	1744.3949	766.51105	742.69952	1741.21936	801.17126	930.55194	1328.30786	819.49677	939.1546	1543.20789	619.63281	938.95013	1396.52185	632.80035	946.98486	1541.49719	776.01428	594.81696	1265.96057	765.96387	462.16705	1270.64636	616.5506	352.61032	1264.83813	451.81073	212.6433	1319.26868	411.12469	226.25285	1378.12439	495.04291	70.97339	1312.19897	816.95593	607.9364	1602.04272	856.07635	455.3725	1572.07141	817.06714	281.70416	1579.83899	805.88239	78.17383	1529.21875	754.90948	39.43251	1480.59351	946.72968	41.60268	1521.99207	835.82367	1706.88245	1471.80469	1973.1156	1023.93793	-3101.99414	2012.51794	1022.04669	-3140.67456	NaN	NaN	NaN
194	1.93	813.91974	1671.39148	1386.46533	862.70502	1673.34802	1489.48511	704.13812	1629.79956	1430.70593	752.78442	1631.08362	1540.67468	671.91632	1431.60779	1453.41626	640.83087	1137.70996	1450.60205	816.2962	1366.1936	1441.49255	862.28284	1213.2782	1429.39978	624.51477	1233.87891	1526.27832	747.53357	1399.45776	1286.40613	725.62268	1219.09814	1194.07764	723.36859	1066.60474	1182.99316	782.23718	969.46637	1150.20886	886.13623	875.46606	1159.73132	833.07501	859.19391	1136.09241	897.14832	805.56494	1120.61877	763.33453	1388.60144	1598.44434	706.50079	1185.08984	1693.88708	706.28314	1061.57227	1693.82019	726.43781	943.76312	1724.35815	798.42932	821.16498	1706.80078	754.91382	825.98737	1745.43567	784.40759	744.48639	1742.55164	810.0506	931.56781	1329.2002	827.89795	939.83759	1544.48889	627.60883	939.84192	1397.02112	641.03723	947.72791	1541.78711	790.73804	596.6416	1266.19434	783.86414	464.01352	1271.0647	635.0094	354.2536	1266.27527	469.97452	215.02747	1321.53052	430.08679	227.26588	1381.38464	514.34937	73.37709	1310.02466	822.09088	608.13495	1602.47839	859.31836	454.92236	1572.41467	819.22809	281.86905	1580.21863	805.9328	78.22863	1529.11487	754.92676	39.53151	1480.60034	946.84308	41.4834	1521.854	845.35632	1707.86914	1472.48499	1973.03979	1023.84253	-3102.02759	2012.62183	1022.08453	-3140.56958	NaN	NaN	NaN
195	1.94	822.99988	1672.44141	1387.0636	872.39844	1674.32214	1489.85999	713.52863	1630.52332	1431.86316	762.82983	1631.71228	1541.61877	681.60052	1432.76038	1454.42407	649.78394	1138.95227	1451.8363	825.71997	1366.85815	1441.72473	871.40607	1213.82031	1429.73169	633.97144	1235.27625	1527.71887	756.22168	1400.46167	1287.08142	732.41901	1219.77954	1195.51746	728.88849	1067.31836	1185.05078	785.41901	968.85583	1152.72546	886.94739	872.23816	1162.63782	833.4798	857.17761	1139.04846	896.06787	801.66815	1124.20032	773.61572	1389.31738	1598.65552	718.92432	1185.95874	1695.45483	719.35992	1062.4137	1695.55127	741.25262	944.79309	1725.97815	814.94891	823.36157	1707.90271	771.82318	827.70605	1747.08594	802.53772	746.64038	1743.90564	818.80658	932.57275	1330.1709	836.27222	940.46851	1545.7522	636.33319	940.73322	1397.37976	649.30798	948.58417	1542.21948	805.70795	598.64862	1266.42419	801.8916	466.24237	1271.35474	653.74316	355.84769	1267.79297	489.36398	216.47252	1323.88513	449.35889	227.14859	1384.40991	534.93042	75.9016	1309.15491	827.18469	608.15222	1602.70349	862.58124	454.4216	1572.59814	821.21735	281.65195	1580.2915	806.04901	78.23841	1529.05981	754.90649	39.66156	1480.53552	947.02399	41.33432	1521.68945	854.81512	1708.80676	1472.97705	1972.94434	1023.89594	-3102.11011	2012.56628	1022.02136	-3140.67822	NaN	NaN	NaN
196	1.95	832.03857	1673.30103	1387.59241	882.01288	1675.20886	1490.0553	722.94232	1631.16553	1432.99963	772.89258	1632.323	1542.40869	691.09631	1433.76074	1455.32983	658.26587	1140.30811	1452.97827	835.11731	1367.51013	1441.98364	880.40381	1214.29028	1430.05615	643.33582	1236.62891	1528.95068	765.01862	1401.31396	1287.66406	739.38458	1220.39612	1196.80225	734.17725	1068.1593	1187.22375	788.51227	968.34521	1155.19971	887.56018	869.10663	1165.60864	833.80273	855.39807	1141.95349	894.84167	797.83594	1127.81421	783.84698	1390.24487	1599.00012	731.39465	1186.87463	1696.97827	732.5285	1063.20789	1697.2196	756.26251	945.83691	1727.40808	831.60687	825.59332	1708.94287	788.5918	829.12549	1748.19373	820.80444	748.97113	1745.32263	827.49854	933.64825	1331.07214	844.69305	941.14044	1547.05945	645.16101	941.80933	1397.72278	657.58649	949.31018	1542.65259	820.55273	600.70984	1266.69971	819.75415	468.52914	1271.58618	672.56421	357.24194	1269.29126	508.94641	216.76323	1325.93982	468.84372	225.94504	1387.18188	556.89294	77.63708	1308.54749	833.81775	608.60522	1603.59143	865.86841	453.95297	1572.7334	823.42566	281.44077	1580.34631	806.3327	78.26582	1529.01733	754.94415	39.79563	1480.49451	947.1908	41.17665	1521.54028	864.27625	1709.66846	1473.3302	1973.18005	1023.55908	-3101.7998	2012.52771	1022.02887	-3140.61206	NaN	NaN	NaN
197	1.96	841.03796	1674.19861	1388.00879	891.58606	1675.97888	1490.00854	732.19318	1631.65613	1434.07678	782.9588	1632.83362	1543.16528	700.6778	1434.77417	1456.14624	667.18701	1141.21191	1453.93909	844.40637	1368.14172	1442.23901	889.36829	1214.74902	1430.40454	652.62433	1237.97253	1530.10681	773.76776	1402.13123	1288.18091	746.27301	1221.07617	1197.98511	739.4668	1068.8844	1189.2157	791.50989	967.90051	1157.68799	888.10913	866.18359	1168.58594	833.97821	853.73798	1144.91846	893.44269	794.22815	1131.3877	794.0495	1391.20618	1599.41992	743.82806	1187.70728	1698.35522	745.75568	1064.06116	1698.93384	771.60675	947.15106	1728.96729	848.36487	827.97534	1709.84399	805.48511	830.73163	1749.30103	839.13556	751.12433	1746.48071	836.11206	934.73059	1331.93018	853.03668	941.76953	1548.26221	653.79688	942.87555	1398.04126	665.81012	949.84393	1542.81641	835.25031	602.94586	1266.99268	837.05292	470.6355	1271.77075	691.14154	358.49869	1270.76355	528.95447	215.92549	1328.01782	488.36829	223.49193	1389.54773	580.74139	79.25655	1308.62634	839.14417	608.84167	1603.89111	869.19702	453.43848	1572.76782	825.66064	281.13507	1580.29163	806.53949	78.25088	1528.87598	754.96747	39.97662	1480.49451	947.31171	41.09456	1521.40112	873.71246	1710.50171	1473.53613	1973.17834	1023.4068	-3101.96899	2012.48438	1021.99261	-3140.72876	NaN	NaN	NaN
198	1.97	849.78931	1674.83911	1388.22314	901.12689	1676.72363	1489.88782	741.43854	1632.13171	1435.06824	792.99188	1633.2793	1543.77014	710.12195	1435.76648	1457.06238	675.79803	1142.30518	1454.96179	853.6402	1368.74988	1442.43701	898.26245	1215.21667	1430.65771	661.89606	1239.20996	1531.18457	782.44458	1402.83484	1288.62659	753.25482	1221.71289	1198.97522	744.5813	1069.68103	1191.41492	794.42163	967.40607	1160.14758	888.33917	863.16565	1171.69128	834.10333	852.1897	1147.83984	892.18365	790.87305	1134.90479	804.06799	1392.0177	1599.64636	756.12024	1188.55298	1699.62561	759.00763	1064.88843	1700.48132	786.85065	948.2757	1730.27148	865.10358	830.3158	1710.58569	822.64545	832.54956	1750.53479	857.50226	753.49921	1747.55811	844.58722	935.75629	1332.76099	861.17719	942.21521	1549.19775	662.34637	943.97534	1398.36194	674.09918	950.50641	1543.08508	849.72943	605.22986	1267.16699	854.06323	473.004	1271.88147	709.42993	359.61349	1272.09009	549.43994	214.09114	1329.89551	508.53659	220.02145	1391.78955	605.92322	79.84496	1308.82239	844.25031	608.63489	1603.94849	872.48633	452.89734	1572.85156	827.82208	280.93167	1580.30981	806.78662	78.30552	1528.84351	754.87415	40.06405	1480.19397	947.40509	41.01013	1521.30457	882.96033	1711.19104	1473.48511	1973.14844	1023.58246	-3101.90894	2012.60339	1022.0061	-3140.79565	NaN	NaN	NaN
